# AST/ASF file generated using VICON BodyLanguage
# -----------------------------------------------
:version 1.10
:name VICON
:units
  mass 1.0
  length 0.45
  angle deg
:documentation
   .ast/.asf automatically generated from VICON data using
   VICON BodyBuilder and BodyLanguage model FoxedUp or BRILLIANT.MOD
:root
   order TX TY TZ RX RY RZ
   axis XYZ
   position 0 0 0  
   orientation 0 0 0 
:bonedata
  begin
     id 1 
     name lhipjoint
     direction 0.630082 -0.636569 0.44472 
     length 2.82754 
     axis 0 0 0  XYZ
  end
  begin
     id 2 
     name lfemur
     direction 0.34202 -0.939693 0  
     length 7.26371  
     axis 0 0 20  XYZ
    dof rx ry rz
    limits (-160.0 20.0)
           (-70.0 70.0)
           (-60.0 70.0)
  end
  begin
     id 3 
     name ltibia
     direction 0.34202 -0.939693 0   
     length 7.88616   
     axis 0 0 20   XYZ
    dof rx
    limits (-10.0 170.0)
  end
  begin
     id 4 
     name lfoot
     direction 0.0603448 -0.165796 0.984312   
     length 1.77861   
     axis -90 7.62852e-016 20   XYZ
    dof rx rz
    limits (-45.0 90.0)
           (-70.0 20.0)
  end
  begin
     id 5 
     name ltoes
     direction 1.53577e-011 -4.21876e-011 1   
     length 0.902235   
     axis -90 7.62852e-016 20   XYZ
    dof rx
    limits (-90.0 20.0)
  end
  begin
     id 6 
     name rhipjoint
     direction -0.656778 -0.61817 0.431866   
     length 2.9117  
     axis 0 0 0  XYZ 
  end
  begin
     id 7 
     name rfemur
     direction -0.34202 -0.939693 0   
     length 6.81603   
     axis 0 0 -20   XYZ
    dof rx ry rz
    limits (-160.0 20.0)
           (-70.0 70.0)
           (-70.0 60.0)
  end
  begin
     id 8 
     name rtibia
     direction -0.34202 -0.939693 0   
     length 8.05997   
     axis 0 0 -20   XYZ
    dof rx
    limits (-10.0 170.0)
 end
 begin
     id 9 
     name rfoot
     direction -0.0862404 -0.236944 0.967688   
     length 1.84899  
     axis -90 -7.62852e-016 -20   XYZ
    dof rx rz
    limits (-45.0 90.0)
           (-20.0 70.0)
  end
  begin
     id 10 
     name rtoes
     direction -1.53561e-011 -4.21798e-011 1   
     length 0.931579   
     axis -90 -7.62852e-016 -20   XYZ
    dof rx
    limits (-90.0 20.0)
  end
  begin
     id 11 
     name lowerback
     direction -0.0110203 0.991769 -0.127564   
     length 2.05686   
     axis 0 0 0   XYZ
    dof rx ry rz
    limits (-20.0 45.0)
           (-30.0 30.0)
           (-30.0 30.0)
  end
  begin
     id 12 
     name upperback
     direction 0.0109719 0.99993 -0.00432479   
     length 2.06234   
     axis 0 0 0   XYZ
    dof rx ry rz
    limits (-20.0 45.0)
           (-30.0 30.0)
           (-30.0 30.0)
  end
  begin
     id 13 
     name thorax
     direction 0.0173308 0.998351 0.0547306   
     length 2.09856   
     axis 0 0 0   XYZ
    dof rx ry rz
    limits (-20.0 45.0)
           (-30.0 30.0)
           (-30.0 30.0)
  end
  begin
     id 14 
     name lowerneck
     direction -0.0311736 0.989033 0.144366   
     length 1.98151   
     axis 0 0 0   XYZ
    dof rx ry rz
    limits (-20.0 45.0)
           (-30.0 30.0)
           (-30.0 30.0)
  end
  begin
     id 15 
     name upperneck
     direction 0.0421057 0.975772 -0.214698   
     length 2.01457   
     axis 0 0 0   XYZ
    dof rx ry rz
    limits (-20.0 45.0)
           (-30.0 30.0)
           (-30.0 30.0)
  end
  begin
     id 16
     name head
     direction 0.0136911 0.995958 -0.0887718  
     length 2.03562  
     axis 0 0 0   XYZ
    dof rx ry rz
    limits (-20.0 45.0)
           (-30.0 30.0)
           (-30.0 30.0)
  end
  begin
     id 17 
     name lclavicle
     direction 0.915335 0.396201 0.0720134  
     length 4.16217  
     axis 0 0 0   XYZ
    dof ry rz
    limits (-20.0 10.0)
           (0.0 20.0)
  end
  begin
     id 18 
     name lhumerus
     direction 1 -4.48965e-011 6.383e-018   
     length 4.93042   
     axis -180 -30 -90   XYZ
    dof rx ry rz
    limits (-60.0 90.0)
           (-90.0 90.0)
           (-90.0 90.0)
  end
  begin
     id 19
     name lradius
     direction 1 -4.48972e-011 8.8689e-027   
     length 3.68177   
     axis -180 -30 -90   XYZ
    dof rx
    limits (-10.0 170.0)
  end
  begin
     id 20
     name lwrist
     direction 1 -4.48953e-011 1.17971e-026   
     length 1.84089   
     axis -7.69454e-015 90 90   XYZ
    dof ry
    limits (-180.0 0.0)
 end
  begin
     id 21 
     name lhand
     direction 1 -4.49027e-011 2.35802e-026   
     length 0.721479   
     axis -1.50533e-014 90 90   XYZ
    dof rx rz
    limits (-90.0 90.0)
           (-45.0 45.0)
  end
  begin
     id 22 
     name lfingers
     direction 1 -4.48915e-011 4.72027e-026   
     length 0.581675   
     axis -3.01059e-014 90 90   XYZ
    dof rx
    limits (0.0 90.0)
  end
  begin
     id 23
     name lthumb
     direction 0.707107 -6.34948e-011 0.707107   
     length 0.835172   
     axis -90 45 -5.12164e-014   XYZ
    dof rx rz
    limits (-45.0 45.0)
           (-45.0 45.0)
  end
  begin
     id 24 
     name rclavicle
     direction -0.882781 0.469197 0.0234974   
     length 3.95647  
     axis 0 0 0   XYZ 
    dof ry rz
    limits (-10.0 20.0)
           (-20.0 0.0)
  end
  begin
     id 25 
     name rhumerus
     direction -1 -4.48965e-011 -1.54906e-018  
     length 5.07905   
     axis -180 30 90   XYZ
    dof rx ry rz
    limits (-90.0 60.0)
           (-90.0 90.0)
           (-90.0 90.0)
  end
  begin
     id 26 
     name rradius
     direction -1 -4.48972e-011 5.47489e-027   
     length 3.54394   
     axis -180 30 90   XYZ
    dof rx
    limits (-10.0 170.0)
  end
  begin
     id 27 
     name rwrist
     direction -1 -4.48955e-011 1.17969e-026   
     length 1.77197   
     axis -7.69454e-015 -90 -90   XYZ
    dof ry
    limits (-180.0 0.0)
  end
  begin
     id 28
     name rhand
     direction -1 -4.48982e-011 2.35888e-026   
     length 0.681156   
     axis -1.50533e-014 -90 -90   XYZ
    dof rx rz
    limits (-90.0 90.0)
           (-45.0 45.0)
  end
  begin
     id 29
     name rfingers
     direction -1 -4.48955e-011 4.71877e-026   
     length 0.549165   
     axis -3.01059e-014 -90 -90   XYZ
    dof rx
    limits (0.0 90.0)
  end
  begin
     id 30
     name rthumb
     direction -0.707107 -6.3491e-011 0.707107   
     length 0.788495   
     axis -90 -45 5.12164e-014   XYZ
    dof rx rz
    limits (-45.0 45.0)
           (-45.0 45.0)
  end
:hierarchy
  begin
    root lhipjoint rhipjoint lowerback
    lhipjoint lfemur
    lfemur ltibia
    ltibia lfoot
    lfoot ltoes
    rhipjoint rfemur
    rfemur rtibia
    rtibia rfoot
    rfoot rtoes
    lowerback upperback
    upperback thorax
    thorax lowerneck lclavicle rclavicle
    lowerneck upperneck
    upperneck head
    lclavicle lhumerus
    lhumerus lradius
    lradius lwrist
    lwrist lhand lthumb
    lhand lfingers
    rclavicle rhumerus
    rhumerus rradius
    rradius rwrist
    rwrist rhand rthumb
    rhand rfingers
  end

#!OML:ASF H:\Bending\Project 1\Capture day 1\Session 1\Subject.ASF
:FULLY-SPECIFIED
:DEGREES
235
root -9.61669 17.94 -16.3731 -160.403 86.1645 -162.818
lowerback 6.19748 -0.613735 0.00426834
upperback -3.10465 -0.644381 2.3156
thorax -6.69897 -0.246967 2.49654
lowerneck -24.0489 -4.94884 -7.66187
upperneck 32.9626 -4.98065 3.83685
head 16.1276 -2.27751 2.00191
rclavicle 5.5287e-015 -1.78906e-014
rhumerus -51.1115 25.1619 -100.474
rradius 91.229
rwrist -1.81145
rhand -34.1603 -39.8407
rfingers 7.12502
rthumb -7.3343 -69.6936
lclavicle 5.5287e-015 -1.78906e-014
lhumerus -52.5322 -35.4775 110.57
lradius 92.9146
lwrist 31.1167
lhand -49.0842 24.5056
lfingers 7.12502
lthumb -21.7099 53.3082
rfemur 7.67573 -4.98622 15.6516
rtibia 6.36111e-015
rfoot -8.6754 -15.6229
rtoes 2.25102
lfemur -5.18046 -10.6464 -12.5988
ltibia 22.2703
lfoot -22.0668 7.15744
ltoes -2.04482
236
root -9.63273 17.9445 -16.3727 -159.843 86.0922 -162.385
lowerback 6.21711 -0.658048 0.0425245
upperback -3.11766 -0.696291 2.35612
thorax -6.72196 -0.272582 2.52428
lowerneck -24.1207 -4.96089 -7.59205
upperneck 33.0271 -5.02696 3.84422
head 16.1769 -2.28536 1.98392
rclavicle 9.62863e-015 -5.96354e-015
rhumerus -50.8291 24.9643 -100.36
rradius 91.3217
rwrist -1.48828
rhand -33.7789 -39.2398
rfingers 7.12502
rthumb -6.96614 -69.1052
lclavicle 9.62863e-015 -5.96354e-015
lhumerus -52.1467 -35.4853 110.232
lradius 93.0285
lwrist 30.9309
lhand -49.0549 24.5068
lfingers 7.12502
lthumb -21.6817 53.3127
rfemur 7.4776 -5.05407 15.713
rtibia -1.43125e-014
rfoot -8.64921 -15.596
rtoes 2.63805
lfemur -5.42732 -10.6482 -12.5032
ltibia 22.32
lfoot -21.9809 7.18494
ltoes -2.3836
237
root -9.64831 17.9499 -16.3717 -159.553 86.0577 -162.242
lowerback 6.2189 -0.679775 0.0354571
upperback -3.13103 -0.722878 2.39055
thorax -6.73565 -0.284013 2.56788
lowerneck -24.2127 -4.98325 -7.56039
upperneck 33.1002 -5.08301 3.88361
head 16.2388 -2.29707 1.98429
rclavicle 2.90101e-015 -1.35174e-014
rhumerus -50.5992 24.8138 -100.235
rradius 91.4309
rwrist -1.25537
rhand -33.4812 -38.7863
rfingers 7.12502
rthumb -6.67872 -68.661
lclavicle 2.90101e-015 -1.35174e-014
lhumerus -51.7994 -35.4556 109.943
lradius 93.2159
lwrist 30.7207
lhand -48.9862 24.4602
lfingers 7.12502
lthumb -21.6158 53.2737
rfemur 7.24911 -5.09435 15.7477
rtibia -1.59028e-015
rfoot -8.6009 -15.5802
rtoes 2.9748
lfemur -5.67461 -10.649 -12.4391
ltibia 22.3434
lfoot -21.9088 7.22503
ltoes -2.43719
238
root -9.66349 17.9557 -16.3703 -159.703 86.0557 -162.542
lowerback 6.22263 -0.675431 -0.00395954
upperback -3.14029 -0.718731 2.41211
thorax -6.74717 -0.279368 2.61253
lowerneck -24.3037 -5.02947 -7.6036
upperneck 33.155 -5.16358 3.97767
head 16.2988 -2.32056 2.0158
rclavicle -1.10574e-015 1.51076e-014
rhumerus -50.4142 24.6889 -100.09
rradius 91.5587
rwrist -1.09677
rhand -33.2828 -38.5276
rfingers 7.12502
rthumb -6.48718 -68.4083
lclavicle -1.10574e-015 1.51076e-014
lhumerus -51.4931 -35.4413 109.72
lradius 93.4667
lwrist 30.5265
lhand -48.9543 24.3989
lfingers 7.12502
lthumb -21.5852 53.2159
rfemur 7.02188 -5.11469 15.7415
rtibia 1.11319e-014
rfoot -8.55322 -15.5687
rtoes 3.30811
lfemur -5.89483 -10.6664 -12.4214
ltibia 22.3313
lfoot -21.8558 7.27847
ltoes -2.18943
239
root -9.67841 17.9614 -16.369 -160.282 86.0763 -163.25
lowerback 6.24668 -0.645755 -0.0519381
upperback -3.14388 -0.68263 2.41846
thorax -6.76592 -0.259099 2.64253
lowerneck -24.3651 -5.1064 -7.73709
upperneck 33.163 -5.27716 4.1338
head 16.3381 -2.36076 2.08228
rclavicle 1.57413e-014 -9.54166e-015
rhumerus -50.2588 24.5624 -99.9225
rradius 91.7065
rwrist -0.984559
rhand -33.1942 -38.4804
rfingers 7.12502
rthumb -6.40167 -68.3637
lclavicle 1.57413e-014 -9.54166e-015
lhumerus -51.2213 -35.4745 109.564
lradius 93.7536
lwrist 30.3532
lhand -49.0179 24.3467
lfingers 7.12502
lthumb -21.6463 53.1567
rfemur 6.82153 -5.12174 15.6962
rtibia 3.18055e-015
rfoot -8.52975 -15.5527
rtoes 3.70165
lfemur -6.06988 -10.6991 -12.4478
ltibia 22.2834
lfoot -21.8153 7.3418
ltoes -1.77411
240
root -9.69318 17.9666 -16.368 -161.084 86.1116 -164.156
lowerback 6.29998 -0.59552 -0.084989
upperback -3.14405 -0.618378 2.41226
thorax -6.79953 -0.225928 2.64804
lowerneck -24.3733 -5.20873 -7.94521
upperneck 33.1088 -5.41855 4.33742
head 16.3422 -2.41606 2.17559
rclavicle -1.84497e-015 2.38542e-015
rhumerus -50.1 24.3662 -99.7304
rradius 91.8321
rwrist -0.865947
rhand -33.21 -38.5748
rfingers 7.12502
rthumb -6.41694 -68.4576
lclavicle -1.84497e-015 2.38542e-015
lhumerus -50.9688 -35.5585 109.461
lradius 94.0413
lwrist 30.1738
lhand -49.1848 24.3129
lfingers 7.12502
lthumb -21.8065 53.1044
rfemur 6.65705 -5.11672 15.6284
rtibia 3.49861e-014
rfoot -8.53861 -15.5269
rtoes 4.16336
lfemur -6.19739 -10.7276 -12.5002
ltibia 22.2085
lfoot -21.7745 7.4079
ltoes -1.39781
241
root -9.70787 17.9712 -16.3676 -161.803 86.1579 -164.958
lowerback 6.37895 -0.533853 -0.0896657
upperback -3.14612 -0.536255 2.40009
thorax -6.85115 -0.185225 2.62952
lowerneck -24.3202 -5.31771 -8.18314
upperneck 32.998 -5.56604 4.55308
head 16.3073 -2.47701 2.27723
rclavicle -1.02405e-014 -1.82882e-014
rhumerus -49.9038 24.2282 -99.5467
rradius 91.9935
rwrist -0.819338
rhand -33.347 -38.8966
rfingers 7.12502
rthumb -6.54917 -68.7753
lclavicle -1.02405e-014 -1.82882e-014
lhumerus -50.7135 -35.6679 109.382
lradius 94.2991
lwrist 29.9531
lhand -49.4032 24.2945
lfingers 7.12502
lthumb -22.0162 53.0615
rfemur 6.51885 -5.09635 15.5627
rtibia -7.95139e-015
rfoot -8.56498 -15.4947
rtoes 4.61078
lfemur -6.29056 -10.7271 -12.553
ltibia 22.122
lfoot -21.7227 7.47
ltoes -1.24182
242
root -9.7224 17.9751 -16.3677 -162.174 86.2145 -165.404
lowerback 6.46904 -0.473523 -0.0679147
upperback -3.15649 -0.452798 2.39005
thorax -6.91826 -0.144766 2.59828
lowerneck -24.2193 -5.40649 -8.39232
upperneck 32.8584 -5.68642 4.73554
head 16.2429 -2.5287 2.36487
rclavicle 7.45443e-017 -2.38542e-015
rhumerus -49.7253 24.1065 -99.3796
rradius 92.2065
rwrist -0.809868
rhand -33.5579 -39.2985
rfingers 7.12502
rthumb -6.75277 -69.1708
lclavicle 7.45443e-017 -2.38542e-015
lhumerus -50.4302 -35.759 109.293
lradius 94.5116
lwrist 29.6764
lhand -49.5861 24.2851
lfingers 7.12502
lthumb -22.1918 53.0312
rfemur 6.38498 -5.05775 15.5202
rtibia -1.74931e-014
rfoot -8.57833 -15.4663
rtoes 4.90617
lfemur -6.37302 -10.6827 -12.5851
ltibia 22.0406
lfoot -21.6572 7.5246
ltoes -1.37943
